<?xml version="1.0" standalone="no"?> <!DOCTYPE svg PUBLIC "-//W3C//DTD SVG 1.0//EN" "http://www.w3.org/TR/2001/REC-SVG-20010904/DTD/svg10.dtd" > <svg xmlns="http://www.w3.org/2000/svg" width="100%" height="100%">
<defs >
<font id="helveticaneueltprolt" horiz-adv-x="878" ><font-face
    font-family="HelveticaNeueLT Pro 45 Lt"
    units-per-em="2048"
    panose-1="2 11 4 3 2 2 2 2 2 4"
    ascent="1462"
    descent="-585"
    alphabetic="0" />
<missing-glyph horiz-adv-x="1048" d="M455 240H569V377H455V240ZM461 479H555Q555 586 567 627Q579 666 655 733Q731 802 757 856T784 979Q784 1099 713 1173T530 1247Q415 1247 341 1177T254 967L356 950Q368 1050 412 1097T524 1145Q588 1145 634 1095T680
971Q680 930 661 896T578 801Q515 740 483 680Q457 629 457 514L461 479ZM946 102H102V1366H946V102ZM1049 1470H0V0H1049V1470Z" />
<glyph unicode=" " glyph-name="space" horiz-adv-x="569" />
<glyph unicode="!" glyph-name="exclam" horiz-adv-x="493" d="M334 0H162V217H334V0ZM209 365L178 1026V1462H317V1026L287 365H209Z" />
<glyph unicode="&quot;" glyph-name="quotedbl" horiz-adv-x="757" d="M451 965V1462H580V965H451ZM178 965V1462H307V965H178Z" />
<glyph unicode="#" glyph-name="numbersign" horiz-adv-x="1138" d="M745 868H457L412 549H700L745 868ZM1018 549V457H791L727 0H625L688 457H399L336 0H233L297 457H72V549H309L354 868H129V961H367L430 1415H532L469 961H758L821 1415H924L860 961H1075V868H848L803
549H1018Z" />
<glyph unicode="$" glyph-name="dollar" horiz-adv-x="1138" d="M59 467H188Q189 291 276 194T526 78V684Q447 701 392 718T276 767T180 840T120 946T96 1094Q96 1273 219 1383T526 1493V1653H606V1493Q725 1493 825 1439T984 1282T1040 1049H911Q910 1201 826
1292T606 1384V795Q673 781 723 767T832 729T932 676T1008 604T1061 506T1079 379Q1079 281 1039 202T932 72T782 -4T606 -31V-205H526V-29Q288 -6 178 113T59 467ZM526 813V1384Q394 1384 310 1308T225 1079Q225 1039 234 1006T257 950T296 907T342 875T400 850T460
830T526 813ZM606 668V78Q673 78 732 95T842 147T921 241T950 377Q950 433 929 478T876 552T795 605T705 641T606 668Z" />
<glyph unicode="%" glyph-name="percent" horiz-adv-x="1820" d="M302 1446T467 1446T712 1340T793 1059T713 778T467 672T222 778T141 1059T221 1340ZM1366 651Q1316 651 1277 633T1215 585T1176 515T1155 436T1149 354Q1149 301 1159 253T1191 160T1259 88T1366
61Q1427 61 1471 88T1539 160T1572 253T1583 354Q1583 396 1577 435T1556 515T1516 584T1454 632T1366 651ZM1201 743T1366 743T1611 637T1692 356T1612 75T1366 -31T1121 75T1040 356T1120 637ZM389 -70L1317 1485H1413L487 -70H389ZM467 1354Q417 1354 378 1336T316
1288T277 1218T256 1139T250 1057Q250 1004 260 956T292 863T360 791T467 764Q528 764 572 791T640 863T673 956T684 1057Q684 1099 678 1138T657 1218T617 1287T555 1335T467 1354Z" />
<glyph unicode="&amp;" glyph-name="ampersand" horiz-adv-x="1251" d="M582 1354Q498 1354 443 1304T387 1165Q387 1129 401 1090T446 1006T495 937T551 870Q600 901 631 925T700 987T757 1069T776 1165Q776 1254 721 1304T582 1354ZM1108 0L952 190Q870 87 759
28T522 -31Q327 -31 204 77T80 379Q80 621 438 813Q434 818 404 855T366 904T335 948T303 1001T281 1050T263 1108T258 1165Q258 1296 351 1379T582 1462Q718 1462 811 1379T905 1165Q905 1100 883 1044T815 941T727 861T618 786L938 401Q963 453 972 506T981 647H1110Q1110
571 1090 477T1024 297L1270 0H1108ZM872 287L508 729Q447 696 401 664T307 587T235 486T209 367Q209 242 304 160T526 78Q727 78 872 287Z" />
<glyph unicode="&apos;" glyph-name="quotesingle" horiz-adv-x="569" d="M221 965V1462H350V965H221Z" />
<glyph unicode="(" glyph-name="parenleft" horiz-adv-x="493" d="M496 -391H393Q247 -148 176 71T104 545Q104 1045 393 1493H496Q233 1072 233 498Q233 279 304 39T496 -391Z" />
<glyph unicode=")" glyph-name="parenright" horiz-adv-x="493" d="M-2 1493H100Q246 1252 317 1032T389 557Q389 53 100 -391H-2Q260 31 260 604Q260 822 189 1057T-2 1493Z" />
<glyph unicode="*" glyph-name="asterisk" horiz-adv-x="720" d="M291 1139L55 1219L84 1294L319 1210V1462H399V1210L635 1294L666 1219L424 1139L571 938L506 891L356 1096L207 891L141 938L291 1139Z" />
<glyph unicode="+" glyph-name="plus" horiz-adv-x="1228" d="M561 569V1030H670V569H1130V461H670V0H561V461H100V569H561Z" />
<glyph unicode="," glyph-name="comma" horiz-adv-x="569" d="M199 217H371V-2Q371 -98 324 -178T190 -281V-193Q236 -177 263 -115T285 0H199V217Z" />
<glyph unicode="-" glyph-name="hyphen" horiz-adv-x="757" d="M635 504H123V623H635V504Z" />
<glyph unicode="." glyph-name="period" horiz-adv-x="569" d="M371 0H199V217H371V0Z" />
<glyph unicode="/" glyph-name="slash" horiz-adv-x="681" d="M84 -31H-27L604 1493H709L84 -31Z" />
<glyph unicode="0" glyph-name="zero" horiz-adv-x="1138" d="M482 1446T569 1446T728 1423T851 1359T941 1260T1004 1139T1043 1001T1063 855T1069 709Q1069 632 1064 562T1043 416T1004 277T941 155T851 57T728 -7T569 -31T410 -8T288 56T198 155T135 276T96
415T76 560T70 707T75 854T96 1000T135 1139T198 1260T287 1358T410 1422ZM637 1337T569 1337T446 1315T353 1256T287 1167T242 1060T215 941T202 822T199 709Q199 649 202 595T215 475T241 355T286 248T352 159T445 101T569 78T692 100T786 159T852 248T897 355T924
475T937 595T940 709Q940 768 937 822T924 941T898 1060T853 1167T786 1256T693 1314Z" />
<glyph unicode="1" glyph-name="one" horiz-adv-x="1138" d="M199 1065V1157Q241 1158 264 1159T323 1162T378 1169T426 1181T470 1199T507 1224T540 1259T566 1304T587 1362T602 1434H707V0H578V1065H199Z" />
<glyph unicode="2" glyph-name="two" horiz-adv-x="1138" d="M1018 119V0H74Q76 102 112 189T202 336T332 456T478 560T630 662T764 774Q826 836 854 898T883 1044Q883 1179 790 1258T561 1337Q476 1337 411 1305T309 1216T253 1090T238 938H109Q105 1088 154
1201T309 1380T567 1446Q763 1446 887 1341T1012 1042Q1012 973 992 909T940 795T859 695T762 609T651 532Q631 519 575 484T484 426T398 363T315 289T256 210T221 119H1018Z" />
<glyph unicode="3" glyph-name="three" horiz-adv-x="1138" d="M68 457H197Q189 286 286 182T555 78Q651 78 733 113T869 223T922 395Q922 542 826 620T578 698H469V807H578Q630 807 680 822T772 868T841 950T868 1067Q868 1201 781 1269T555 1337Q398 1337 311
1238T229 975H100Q100 1181 223 1313T553 1446Q639 1446 717 1424T858 1359T959 1245T997 1081Q997 963 934 878T756 764V760Q896 737 973 643T1051 406Q1051 270 982 169T802 19T557 -31Q409 -31 295 26T119 195T68 457Z" />
<glyph unicode="4" glyph-name="four" horiz-adv-x="1138" d="M178 465H723V1245H719L178 465ZM61 356V481L725 1434H842V465H1057V356H842V0H723V356H61Z" />
<glyph unicode="5" glyph-name="five" horiz-adv-x="1138" d="M74 410H203Q207 262 306 170T555 78Q662 78 745 132T870 275T913 469Q913 628 810 735T547 842Q450 842 366 798T227 672H117L256 1415H973V1296H346L254 821L258 817Q311 879 393 914T561 950Q780
950 911 812T1042 455Q1042 248 897 109T545 -31Q342 -31 210 89T74 410Z" />
<glyph unicode="6" glyph-name="six" horiz-adv-x="1138" d="M1034 1071H905Q888 1191 809 1264T606 1337Q536 1337 479 1315T381 1256T310 1167T261 1058T231 937T215 814T211 696H215Q266 803 370 868T596 934Q809 934 939 800T1069 455Q1069 245 933 107T584
-31Q407 -31 299 43T136 284T82 731Q82 776 85 825T102 946T136 1084T196 1217T287 1334T418 1414T594 1446Q787 1446 899 1352T1034 1071ZM594 825Q430 825 334 717T238 446Q238 368 259 303T322 186T434 107T596 78Q746 78 843 186T940 446Q940 608 847 716T594
825Z" />
<glyph unicode="7" glyph-name="seven" horiz-adv-x="1138" d="M104 1296V1415H1026V1296Q960 1227 899 1153T755 952T611 690T503 373T446 0H307Q332 365 466 662T897 1296H104Z" />
<glyph unicode="8" glyph-name="eight" horiz-adv-x="1138" d="M569 821Q696 816 785 886T874 1087Q874 1206 789 1271T569 1337Q443 1337 353 1271T262 1087Q262 1018 288 965T358 880T456 834T569 821ZM1004 1087Q1004 971 943 888T770 772V768Q910 739 986
643T1063 401Q1063 296 1024 213T917 77T761 -3T569 -31T378 -4T222 76T115 212T76 401Q81 545 158 644T367 768V772Q254 807 194 888T133 1087Q133 1176 170 1246T270 1359T409 1424T567 1446T725 1424T865 1360T966 1247T1004 1087ZM569 78Q730 78 832 160T934
401Q934 500 883 573T749 681T569 713Q415 718 310 635T205 401Q205 246 307 162T569 78Z" />
<glyph unicode="9" glyph-name="nine" horiz-adv-x="1138" d="M104 344H233Q251 224 330 151T532 78Q602 78 659 100T757 159T829 248T878 357T908 478T924 601T928 719H924Q873 612 769 547T543 481Q330 481 200 615T70 961Q70 1171 206 1308T555 1446Q732 1446
840 1372T1003 1131T1057 684Q1057 639 1054 590T1037 469T1003 331T943 198T852 81T721 1T545 -31Q352 -31 240 63T104 344ZM545 590Q709 590 805 698T901 969Q901 1133 812 1235T543 1337Q393 1337 296 1229T199 969Q199 807 292 699T545 590Z" />
<glyph unicode=":" glyph-name="colon" horiz-adv-x="569" d="M371 0H199V217H371V0ZM371 807H199V1024H371V807Z" />
<glyph unicode=";" glyph-name="semicolon" horiz-adv-x="569" d="M371 807H199V1024H371V807ZM199 217H371V-2Q371 -98 324 -178T190 -281V-193Q236 -177 263 -115T285 0H199V217Z" />
<glyph unicode="&lt;" glyph-name="less" horiz-adv-x="1228" d="M1135 96V-16L94 463V573L1135 1053V940L221 518L1135 96Z" />
<glyph unicode="=" glyph-name="equal" horiz-adv-x="1228" d="M1130 371V262H100V371H1130ZM1130 774V666H100V774H1130Z" />
<glyph unicode="&gt;" glyph-name="greater" horiz-adv-x="1228" d="M94 96L1008 518L94 940V1053L1135 573V463L94 -16V96Z" />
<glyph unicode="?" glyph-name="question" horiz-adv-x="1099" d="M473 0V217H645V0H473ZM240 1012H111Q111 1231 234 1362T575 1493Q752 1493 871 1390T991 1114Q991 1007 946 928T813 766Q792 745 762 716T720 675T689 642T665 611T649 580T636 543T630 498T625
440T623 367H494Q492 429 496 477T514 567T543 639T590 706T649 770T729 844Q862 968 862 1108Q862 1228 776 1306T569 1384Q408 1384 322 1280T240 1012Z" />
<glyph unicode="@" glyph-name="at" horiz-adv-x="1638" d="M1257 1114L1061 524Q1050 487 1045 460T1039 407T1051 368T1087 354Q1153 354 1218 401T1329 522T1405 686T1434 862Q1434 1026 1354 1150T1143 1338T852 1401Q711 1401 590 1348T384 1204T253 988T205
723Q205 586 254 464T390 253T597 113T856 61Q1008 61 1152 135T1384 334H1489Q1396 168 1223 69T856 -31Q639 -31 465 70T193 347T96 737Q96 894 155 1034T314 1275T554 1434T848 1493Q1043 1493 1201 1413T1450 1187T1542 856Q1542 736 1500 625T1391 435T1238
309T1067 262Q1011 262 974 297T930 399H926Q793 264 666 264Q542 264 469 349T395 561Q395 646 417 731T482 891T584 1026T719 1119T881 1153Q1032 1153 1098 981L1149 1114H1257ZM872 1044Q798 1044 731 997T619 879T550 726T524 571Q524 481 571 427T694 373Q761
373 826 423T935 546T1007 703T1034 854Q1034 926 983 985T872 1044Z" />
<glyph unicode="A" glyph-name="A" horiz-adv-x="1290" d="M647 1323L354 573H930L647 1323ZM-14 0L575 1462H731L1305 0H1155L977 455H311L135 0H-14Z" />
<glyph unicode="B" glyph-name="B" horiz-adv-x="1366" d="M287 1343V821H766Q925 821 1010 891T1096 1069Q1096 1343 766 1343H287ZM147 0V1462H766Q863 1462 943 1444T1091 1386T1197 1274T1235 1104Q1235 987 1164 894T981 776V772Q1122 754 1206 657T1290
416Q1290 381 1286 349T1269 273T1234 193T1172 120T1078 58T945 16T766 0H147ZM287 702V119H766Q1151 119 1151 420Q1151 560 1052 631T766 702H287Z" />
<glyph unicode="C" glyph-name="C" horiz-adv-x="1441" d="M1356 1020H1217Q1180 1185 1056 1279T768 1374Q628 1374 520 1319T347 1172T250 967T217 731Q217 633 236 542T299 367T406 223T562 125T768 88Q899 88 1002 151T1164 320T1237 557H1376Q1347 285 1185
127T768 -31Q633 -31 520 10T326 122T189 289T105 497T78 731T105 964T188 1172T325 1340T519 1452T768 1493Q910 1493 1035 1440T1248 1277T1356 1020Z" />
<glyph unicode="D" glyph-name="D" horiz-adv-x="1402" d="M147 0V1462H653Q1325 1447 1325 731T653 0H147ZM287 1343V119H584Q901 119 1043 262T1186 731T1044 1200T584 1343H287Z" />
<glyph unicode="E" glyph-name="E" horiz-adv-x="1214" d="M147 0V1462H1157V1343H287V815H1102V696H287V119H1167V0H147Z" />
<glyph unicode="F" glyph-name="F" horiz-adv-x="1099" d="M147 0V1462H1075V1343H287V815H987V696H287V0H147Z" />
<glyph unicode="G" glyph-name="G" horiz-adv-x="1517" d="M1397 743V0H1296L1278 266H1274Q1204 116 1070 43T768 -31Q633 -31 520 10T326 122T189 289T105 497T78 731T105 964T188 1172T325 1340T519 1452T768 1493Q923 1493 1050 1439T1264 1275T1378 1008H1239Q1233
1072 1197 1136T1102 1253T955 1340T768 1374Q628 1374 520 1319T347 1172T250 967T217 731Q217 633 236 542T299 367T406 223T562 125T768 88Q927 88 1043 157T1218 348T1274 625H776V743H1397Z" />
<glyph unicode="H" glyph-name="H" horiz-adv-x="1441" d="M147 0V1462H287V827H1155V1462H1294V0H1155V709H287V0H147Z" />
<glyph unicode="I" glyph-name="I" horiz-adv-x="454" d="M158 0V1462H297V0H158Z" />
<glyph unicode="J" glyph-name="J" horiz-adv-x="1024" d="M737 467V1462H877V408Q877 180 780 75T451 -31Q354 -31 280 -3T162 71T91 184T53 319T43 469H182Q182 460 183 440Q184 400 185 378T193 314T210 245T242 186T291 134T363 102T463 88Q545 88 598 109T682
178T725 294T737 467Z" />
<glyph unicode="K" glyph-name="K" horiz-adv-x="1327" d="M147 0V1462H287V676L1137 1462H1325L672 858L1356 0H1176L567 762L287 502V0H147Z" />
<glyph unicode="L" glyph-name="L" horiz-adv-x="1099" d="M147 0V1462H287V119H1106V0H147Z" />
<glyph unicode="M" glyph-name="M" horiz-adv-x="1705" d="M143 0V1462H348L854 180L1358 1462H1563V0H1423V1264H1419L920 0H788L287 1264H283V0H143Z" />
<glyph unicode="N" glyph-name="N" horiz-adv-x="1441" d="M145 0V1462H301L1153 225H1157V1462H1296V0H1141L289 1237H285V0H145Z" />
<glyph unicode="O" glyph-name="O" horiz-adv-x="1517" d="M209 731Q209 633 228 542T291 367T398 223T554 125T760 88T964 124T1120 222T1226 367T1289 541T1309 731T1290 920T1227 1095T1120 1239T965 1337T760 1374Q620 1374 512 1319T339 1172T242 967T209
731ZM70 609T70 731T97 964T180 1172T317 1340T511 1452T760 1493Q894 1493 1007 1453T1201 1341T1337 1173T1421 965T1448 731T1421 498T1338 290T1201 122T1008 10T760 -31Q625 -31 512 10T318 122T181 289T97 497Z" />
<glyph unicode="P" glyph-name="P" horiz-adv-x="1290" d="M287 1343V745H766Q917 745 1004 821T1092 1044Q1092 1192 1005 1267T766 1343H287ZM147 0V1462H797Q996 1462 1113 1351T1231 1044T1114 738T797 627H287V0H147Z" />
<glyph unicode="Q" glyph-name="Q" horiz-adv-x="1517" d="M1436 -8L1366 -94L1139 78Q986 -31 760 -31Q625 -31 512 10T318 122T181 289T97 497T70 731T97 964T180 1172T317 1340T511 1452T760 1493Q894 1493 1007 1453T1201 1341T1337 1173T1421 965T1448 731Q1448
558 1392 407T1227 152L1436 -8ZM909 393L1122 231Q1216 320 1262 451T1309 731Q1309 829 1290 920T1227 1095T1120 1239T965 1337T760 1374Q620 1374 512 1319T339 1172T242 967T209 731Q209 633 228 542T291 367T398 223T554 125T760 88Q914 88 1030 160L838
305L909 393Z" />
<glyph unicode="R" glyph-name="R" horiz-adv-x="1366" d="M287 1343V768H807Q940 768 1031 845T1122 1053Q1122 1191 1042 1267T807 1343H287ZM147 0V1462H817Q909 1462 988 1439T1129 1371T1226 1252T1262 1081Q1262 938 1189 838T977 709V705Q1111 686 1168
603T1233 375Q1233 371 1236 308T1242 217T1251 138T1270 53T1300 0H1147Q1135 19 1128 52T1118 109T1112 175T1108 227Q1105 281 1102 316T1091 401T1071 483T1037 550T986 606T914 638T815 649H287V0H147Z" />
<glyph unicode="S" glyph-name="S" horiz-adv-x="1290" d="M74 481H213Q211 372 246 294T349 171T500 108T690 88Q752 88 816 105T941 156T1039 249T1077 385Q1077 444 1051 490T977 567T882 616T776 649L451 729Q395 743 351 760T261 805T187 870T140 960T121
1081Q121 1129 133 1179T180 1288T269 1390T415 1463T625 1493Q735 1493 832 1464T1003 1379T1121 1236T1165 1038H1026Q1021 1145 965 1222T821 1337T627 1374Q552 1374 489 1359T373 1311T290 1220T260 1083Q260 909 481 860L838 772Q923 749 985 721T1103 649T1188
539T1217 387Q1217 360 1214 332T1197 261T1161 180T1095 102T995 34T851 -12T657 -31Q525 -31 418 -1T230 91T109 251T74 481Z" />
<glyph unicode="T" glyph-name="T" horiz-adv-x="1138" d="M-10 1343V1462H1149V1343H639V0H500V1343H-10Z" />
<glyph unicode="U" glyph-name="U" horiz-adv-x="1402" d="M133 526V1462H272V557Q272 311 381 200T700 88Q912 88 1021 199T1130 557V1462H1270V526Q1270 434 1250 353T1187 200T1078 78T916 -2T700 -31Q582 -31 487 -2T326 78T217 200T153 352T133 526Z" />
<glyph unicode="V" glyph-name="V" horiz-adv-x="1214" d="M528 0L-14 1462H135L610 154H614L1085 1462H1233L690 0H528Z" />
<glyph unicode="W" glyph-name="W" horiz-adv-x="1857" d="M406 0L0 1462H150L481 182H485L842 1462H1016L1374 182H1378L1712 1462H1851L1448 0H1300L930 1309H926L557 0H406Z" />
<glyph unicode="X" glyph-name="X" horiz-adv-x="1175" d="M502 754L6 1462H170L584 850L1012 1462H1167L668 750L1196 0H1028L584 645L133 0H-25L502 754Z" />
<glyph unicode="Y" glyph-name="Y" horiz-adv-x="1251" d="M555 0V602L-20 1462H145L627 721L1106 1462H1272L694 602V0H555Z" />
<glyph unicode="Z" glyph-name="Z" horiz-adv-x="1175" d="M76 1343V1462H1128V1339L166 119H1149V0H10V123L973 1343H76Z" />
<glyph unicode="[" glyph-name="bracketleft" horiz-adv-x="493" d="M485 -391H156V1493H485V1384H285V-283H485V-391Z" />
<glyph unicode="\" glyph-name="backslash" horiz-adv-x="681" d="M709 -31H598L-27 1493H78L709 -31Z" />
<glyph unicode="]" glyph-name="bracketright" horiz-adv-x="493" d="M8 1493H338V-391H8V-283H209V1384H8V1493Z" />
<glyph unicode="^" glyph-name="asciicircum" horiz-adv-x="1228" d="M209 487H90L561 1415H668L1139 487H1022L612 1286L209 487Z" />
<glyph unicode="_" glyph-name="underscore" horiz-adv-x="1024" d="M1024 -256H0V-154H1024V-256Z" />
<glyph unicode="`" glyph-name="grave" horiz-adv-x="378" d="M207 1204L-63 1493H96L311 1204H207Z" />
<glyph unicode="a" glyph-name="a" horiz-adv-x="1062" d="M240 733H111Q121 913 234 1000T539 1087Q928 1087 928 748V186Q928 109 1004 109Q1025 109 1044 117V8Q1004 0 961 0Q870 0 840 46T809 184H805Q768 128 735 92T656 26T553 -17T420 -31Q319 -31 241
1T114 104T66 279Q66 464 226 539Q320 582 530 606Q547 608 583 612Q616 616 633 618Q723 627 761 654T799 762Q799 825 778 869T718 936T631 969T522 979Q395 979 320 918T240 733ZM799 410V578H795Q787 564 765 553T728 539T686 530Q654 524 603 517T516 505T435
491T358 471T293 444T241 406T208 355T195 287Q195 194 264 136T430 78Q585 78 692 169T799 410Z" />
<glyph unicode="b" glyph-name="b" horiz-adv-x="1175" d="M123 0V1462H252V856H256Q294 965 397 1026T623 1087Q740 1087 832 1043T981 920T1068 743T1098 528T1069 314T982 136T832 14T623 -31Q493 -31 392 30T246 201H242V0H123ZM969 528Q969 614 949 692T889
835T780 940T623 979Q525 979 451 940T335 835T273 692T252 528Q252 442 272 365T334 222T450 117T623 78Q711 78 779 117T888 221T949 365T969 528Z" />
<glyph unicode="c" glyph-name="c" horiz-adv-x="1062" d="M997 725H868Q813 979 569 979Q498 979 437 954T333 885T259 784T214 661T199 528T213 396T259 274T333 173T437 104T569 78Q688 78 776 163T877 379H1006Q980 187 864 78T569 -31Q452 -31 356 13T199
135T104 313T70 528T103 743T198 921T356 1042T569 1087Q746 1087 860 995T997 725Z" />
<glyph unicode="d" glyph-name="d" horiz-adv-x="1175" d="M1053 1462V0H934V201H930Q889 98 781 34T553 -31Q436 -31 344 13T194 136T108 313T78 528T107 742T194 920T343 1042T553 1087Q676 1087 778 1027T920 856H924V1462H1053ZM207 596T207 528T219 397T258
276T324 174T423 104T553 78Q651 78 725 117T841 221T903 364T924 528Q924 615 904 692T841 835T725 940T553 979Q482 979 423 953T325 884T258 782T219 660Z" />
<glyph unicode="e" glyph-name="e" horiz-adv-x="1062" d="M199 602H883Q880 701 841 786T724 925T547 979Q445 979 368 924T251 786T199 602ZM1012 494H199Q199 420 219 349T280 216T389 116T547 78Q683 78 765 149T879 348H1008Q964 162 853 66T547 -31Q425
-31 332 13T182 136T98 313T70 528Q70 614 87 693T141 845T233 970T368 1055T547 1087T725 1054T860 964T950 831T1000 670T1012 494Z" />
<glyph unicode="f" glyph-name="f" horiz-adv-x="530" d="M530 1057V948H322V0H193V948H12V1057H193V1153Q193 1226 204 1279T242 1375T321 1440T449 1462Q502 1462 557 1454V1343Q502 1354 463 1354Q437 1354 417 1351T382 1338T357 1320T340 1294T330 1264T325
1229T323 1191T322 1149V1057H530Z" />
<glyph unicode="g" glyph-name="g" horiz-adv-x="1138" d="M1016 1057V86Q1016 -162 906 -292T547 -422Q465 -422 391 -403T255 -347T154 -246T109 -102H238Q250 -176 298 -225T409 -293T547 -313Q723 -313 805 -213T887 86V229H883Q837 129 749 71T547 12Q448
12 368 39T233 115T141 233T87 382T70 555Q70 702 124 821T289 1014T547 1087Q659 1087 750 1026T883 874H887V1057H1016ZM547 121Q654 121 733 182T849 337T887 541Q887 605 876 666T838 784T774 884T677 953T547 979Q458 979 390 942T281 842T220 703T199 541Q199
459 220 385T282 252T392 157T547 121Z" />
<glyph unicode="h" glyph-name="h" horiz-adv-x="1099" d="M121 0V1462H250V874H254Q291 969 385 1028T592 1087Q701 1087 777 1060T897 978T960 851T979 680V0H850V659Q850 731 837 786T795 886T712 955T582 979Q431 979 343 878T250 616V0H121Z" />
<glyph unicode="i" glyph-name="i" horiz-adv-x="378" d="M125 1255V1462H254V1255H125ZM125 0V1057H254V0H125Z" />
<glyph unicode="j" glyph-name="j" horiz-adv-x="378" d="M125 1255V1462H254V1255H125ZM125 -129V1057H254V-98Q254 -162 244 -211T210 -303T141 -368T29 -391Q13 -391 -16 -389T-61 -387V-281Q-16 -285 8 -283Q78 -283 101 -244T125 -129Z" />
<glyph unicode="k" glyph-name="k" horiz-adv-x="1024" d="M123 0V1462H252V545L838 1057H1010L559 666L1040 0H879L461 575L252 401V0H123Z" />
<glyph unicode="l" glyph-name="l" horiz-adv-x="378" d="M125 0V1462H254V0H125Z" />
<glyph unicode="m" glyph-name="m" horiz-adv-x="1705" d="M123 0V1057H242V879H248Q356 1087 594 1087Q703 1087 786 1034T897 881Q943 982 1033 1034T1233 1087Q1583 1087 1583 717V0H1454V711Q1454 847 1397 913T1204 979Q1124 979 1066 948T977 862T932 742T918
598V0H788V717Q788 835 736 907T567 979Q409 979 331 873T252 590V0H123Z" />
<glyph unicode="n" glyph-name="n" horiz-adv-x="1099" d="M121 0V1057H250V874H254Q291 969 385 1028T592 1087Q701 1087 777 1060T897 978T960 851T979 680V0H850V659Q850 731 837 786T795 886T712 955T582 979Q431 979 343 878T250 616V0H121Z" />
<glyph unicode="o" glyph-name="o" horiz-adv-x="1138" d="M569 979Q498 979 437 954T333 885T259 784T214 661T199 528T213 396T259 274T333 173T437 104T569 78Q658 78 730 116T847 219T916 363T940 528Q940 614 916 693T847 837T730 940T569 979ZM569 1087Q725
1087 840 1010T1012 807T1069 528T1013 249T841 47T569 -31Q452 -31 356 13T199 135T104 313T70 528T103 743T198 921T356 1042T569 1087Z" />
<glyph unicode="p" glyph-name="p" horiz-adv-x="1175" d="M123 -391V1057H242V856H246Q290 964 391 1025T623 1087Q740 1087 832 1043T981 920T1068 743T1098 528T1069 314T982 136T832 14T623 -31Q500 -31 398 29T256 201H252V-391H123ZM969 528Q969 614 949
692T889 835T780 940T623 979Q519 979 445 943T330 843T271 701T252 528Q252 442 272 365T334 222T450 117T623 78Q711 78 779 117T888 221T949 365T969 528Z" />
<glyph unicode="q" glyph-name="q" horiz-adv-x="1175" d="M1053 1057V-391H924V201H920Q880 90 778 30T553 -31Q436 -31 344 13T194 136T108 313T78 528T107 742T194 920T343 1042T553 1087Q672 1087 780 1023T930 856H934V1057H1053ZM207 596T207 528T219 397T258
276T324 174T423 104T553 78Q651 78 725 117T841 221T903 364T924 528Q924 615 904 692T841 835T725 940T553 979Q482 979 423 953T325 884T258 782T219 660Z" />
<glyph unicode="r" glyph-name="r" horiz-adv-x="645" d="M123 0V1057H242V809H246Q295 939 399 1008T645 1071V942Q473 949 363 840T252 563V0H123Z" />
<glyph unicode="s" glyph-name="s" horiz-adv-x="985" d="M885 748H756Q752 862 675 920T479 979Q433 979 391 970T312 940T252 883T229 797Q229 757 249 726T306 673T375 641T449 618L621 580Q679 571 730 550T826 495T896 407T922 287Q922 220 897 166T830 76T732
15T618 -20T498 -31Q306 -31 193 60T63 342H193Q200 215 285 147T504 78Q553 78 601 89T694 122T765 185T793 279Q793 323 775 356T720 410T648 445T561 471L395 508Q325 526 277 546T186 598T122 678T100 791Q100 868 135 927T229 1020T356 1070T498 1087Q665
1087 771 1001T885 748Z" />
<glyph unicode="t" glyph-name="t" horiz-adv-x="606" d="M328 1374V1057H543V948H328V236Q328 165 348 133T432 96Q488 96 543 102V-8Q524 -8 486 -10T428 -12Q298 -12 248 39T199 225V948H14V1057H199V1374H328Z" />
<glyph unicode="u" glyph-name="u" horiz-adv-x="1099" d="M979 1057V0H860V190H856Q806 85 709 27T492 -31Q298 -31 210 72T121 371V1057H250V369Q255 220 319 149T532 78Q612 78 674 113T774 209T831 344T850 502V1057H979Z" />
<glyph unicode="v" glyph-name="v" horiz-adv-x="948" d="M412 0L4 1057H147L479 129H483L811 1057H944L549 0H412Z" />
<glyph unicode="w" glyph-name="w" horiz-adv-x="1517" d="M356 0L16 1057H154L424 152H428L686 1057H831L1090 152H1094L1364 1057H1501L1161 0H1020L760 889H756L498 0H356Z" />
<glyph unicode="x" glyph-name="x" horiz-adv-x="985" d="M2 0L412 549L33 1057H195L496 655L791 1057H952L571 551L983 0H819L487 444L162 0H2Z" />
<glyph unicode="y" glyph-name="y" horiz-adv-x="948" d="M426 4L4 1057H141L489 156L815 1057H944L485 -162Q454 -235 433 -274T379 -342T308 -381T207 -391Q128 -388 109 -381V-272Q156 -283 197 -283Q221 -283 241 -278T275 -268T304 -248T326 -225T346 -192T363
-158T381 -117L426 4Z" />
<glyph unicode="z" glyph-name="z" horiz-adv-x="948" d="M885 965L186 109H913V0H31V104L721 948H78V1057H885V965Z" />
<glyph unicode="{" glyph-name="braceleft" horiz-adv-x="681" d="M600 -391H498Q413 -391 365 -322T317 -135V168Q317 496 170 496V604Q317 604 317 932V1237Q317 1355 365 1424T498 1493H600V1384H559Q502 1384 474 1324T446 1174V885Q446 806 429 742T384 639T338
582T303 553V549Q315 542 328 530T364 490T404 427T433 337T446 217V-72Q446 -163 473 -223T559 -283H600V-391Z" />
<glyph unicode="|" glyph-name="bar" horiz-adv-x="454" d="M174 -438V1610H283V-438H174Z" />
<glyph unicode="}" glyph-name="braceright" horiz-adv-x="681" d="M82 1493H184Q269 1493 317 1424T365 1237V934Q365 606 512 606V498Q365 498 365 170V-135Q365 -253 317 -322T184 -391H82V-283H123Q181 -283 208 -223T236 -72V217Q236 281 248 336T278 426T317
489T353 530T379 549V553Q363 562 344 581T298 639T254 741T236 885V1174Q236 1264 208 1324T123 1384H82V1493Z" />
<glyph unicode="~" glyph-name="asciitilde" horiz-adv-x="1228" d="M1014 645L1087 571Q1061 532 1039 506T986 451T915 409T831 395Q777 395 726 412T606 463Q558 485 533 495T466 517T387 528Q280 528 215 387L141 461Q227 637 397 637Q481 637 633 571Q643
567 666 557T699 543T729 531T759 520T785 512T811 506T834 504Q889 504 929 541T1014 645Z" />
</font>
</defs>
</svg>
